#N canvas 528 415 450 300 10;
#X obj 53 34 inlet;
#X obj 180 34 inlet;
#X text 43 8 1: start \, 0: stop;
#X text 191 8 BPM;
#X obj 52 75 t f f;
#X obj 50 104 sel 1;
#X obj 179 69 expr 60000 / (24 * $f1);
#X obj 122 107 metro 25;
#X msg 49 129 250;
#X msg 86 130 252;
#X msg 122 131 248;
#X obj 48 167 f;
#X obj 49 204 outlet;
#X connect 0 0 4 0;
#X connect 1 0 6 0;
#X connect 4 0 7 0;
#X connect 4 1 5 0;
#X connect 5 0 8 0;
#X connect 5 1 9 0;
#X connect 6 0 7 1;
#X connect 7 0 10 0;
#X connect 8 0 11 0;
#X connect 9 0 11 0;
#X connect 10 0 11 0;
#X connect 11 0 12 0;
